<svg xmlns="http://www.w3.org/2000/svg" enable-background="new 0 0 50 50" viewBox="0 0 50 50"><path d="M5.2669,32.5945c0.0305,0.0182,0.0594,0.0347,0.0903,0.0519c3.0399,1.753,2.4249,1.9608,4.0388,2.4302
		c-0.2384,0.0905-0.5149,0.1165-0.8325,0.0743c0.4064,0.4727,1.1049,0.7745,2.0878,0.9153L10.02,36.3552
		c0.8745,0.4051,1.7175,0.7383,2.4318,0.7698l-0.3573,0.5271c0.7365,0.195,1.4927,0.3305,2.3127,0.3857l-0.226,0.3693
		c0.4324,0.1696,1.0963,0.1966,1.8225,0.1833l-0.0038,0.327c0.6804,0.173,1.5032,0.1583,2.3432,0.1212
		c-0.0612,0.0661-0.0562,0.1822-0.1639,0.2643c0.7497,0.1012,1.4158,0.11,2.0203,0.0516l0.025,0.2787
		c0.6791-0.0884,2.4137,0.139,3.8459,0.3994c0.0182,0.054,0.043,0.1016,0.0708,0.1503c-0.7043-0.0544-1.4433-0.1467-1.7347-0.2602
		l-0.0606,0.1411c-0.3063-0.1077-0.6542-0.188-1.0621-0.2312c0.0415,0.0565,0.0211,0.1152,0.0416,0.1567
		c-0.4335-0.1248-0.8603-0.2385-1.2432-0.2351l-0.0524,0.1689c-0.377-0.0988-0.7285-0.1705-0.9821-0.1373l0.0577,0.2187
		c-0.4368-0.0762-0.8544-0.1021-1.2704-0.0955l0.1011,0.317c-0.3793-0.0742-0.8745-0.0102-1.3978,0.0878l0.2836,0.2292
		c-0.5363-0.0521-0.9514,0.0145-1.2405,0.2059c0.1711,0.0189,0.3109,0.0671,0.4205,0.1445
		c-0.918,0.0356-0.6315,0.2219-2.5053,0.7377c-0.0215,0.0056-0.0441,0.012-0.0668,0.0184c0.02,0.0008,0.0388,0.0011,0.0587,0.0013
		c1.9784,0.0461,1.7704,0.292,2.6631,0.1072c-0.0773,0.0998-0.1938,0.1797-0.3524,0.2389c0.3459,0.1143,0.7661,0.0791,1.2601-0.0993
		l-0.1877,0.2867c0.5353-0.0317,1.0316-0.0883,1.3665-0.2501l0.018,0.3272c0.4008-0.093,0.7903-0.218,1.1813-0.395l0.0236,0.2233
		c0.2542-0.0297,0.5646-0.181,0.8896-0.366l0.11,0.1494c0.3678-0.0892,0.7361-0.2986,1.1046-0.5225
		c-0.0051,0.045,0.0367,0.0965,0.0159,0.1603c0.3748-0.1389,0.6801-0.299,0.9343-0.4745l0.1066,0.1203
		c0.2598-0.194,1.0336-0.4907,1.7371-0.7205c0.0117,0.0092,0.0247,0.0162,0.0367,0.0247v6.8994h1v-6.8994
		c0.0515-0.0365,0.1031-0.0696,0.1456-0.116c0.8021,0.256,1.732,0.6057,2.0327,0.8302l0.1165-0.1314
		c0.2778,0.1917,0.6113,0.3667,1.0206,0.5184c-0.0228-0.0697,0.023-0.1259,0.0174-0.1751c0.4025,0.2446,0.8048,0.4733,1.2066,0.5708
		l0.1202-0.1631c0.355,0.2021,0.6941,0.3674,0.9717,0.3998l0.0258-0.2439c0.4271,0.1934,0.8525,0.3298,1.2903,0.4315l0.0197-0.3574
		c0.3659,0.1766,0.9081,0.2385,1.4927,0.2731l-0.2051-0.3132c0.5397,0.1949,0.9987,0.2333,1.3765,0.1085
		c-0.1732-0.0646-0.3005-0.152-0.3849-0.261c0.9752,0.2019,0.7479-0.0667,2.909-0.1171c0.0218-0.0002,0.0423-0.0005,0.0641-0.0014
		c-0.0247-0.007-0.0494-0.014-0.0729-0.0201c-2.0469-0.5634-1.7339-0.767-2.7368-0.8059c0.1198-0.0845,0.2724-0.1372,0.4594-0.1578
		c-0.3157-0.2092-0.7691-0.2818-1.355-0.225l0.3098-0.2504c-0.5717-0.107-1.1125-0.1768-1.5269-0.0959l0.1104-0.3462
		c-0.4545-0.0071-0.9105,0.0211-1.3878,0.1043l0.063-0.2388c-0.277-0.0364-0.6609,0.0419-1.0728,0.1499l-0.0572-0.1845
		c-0.4183-0.0036-0.8845,0.1205-1.358,0.2569c0.0223-0.0453,0-0.1094,0.0453-0.1712c-0.4456,0.0472-0.8256,0.1349-1.1601,0.2526
		l-0.0662-0.1541c-0.3501,0.1363-1.2903,0.2449-2.1222,0.301c0.0213-0.0448,0.0297-0.0936,0.0433-0.1422
		c1.4656-0.275,3.3343-0.5278,4.0448-0.4353l0.025-0.2787c0.6044,0.0585,1.2706,0.0496,2.0203-0.0516
		c-0.1077-0.082-0.1028-0.1981-0.1639-0.2642c0.84,0.0371,1.6628,0.0518,2.3432-0.1212l-0.0038-0.327
		c0.7262,0.0132,1.3901-0.0137,1.8225-0.1833l-0.2261-0.3693c0.8201-0.0552,1.5763-0.1908,2.3128-0.3857l-0.3573-0.5271
		c0.7144-0.0316,1.5573-0.3647,2.4318-0.7699l-0.6314-0.2889c0.9829-0.1407,1.6815-0.4426,2.0878-0.9153
		c-0.3176,0.0421-0.5941,0.0161-0.8325-0.0743c1.614-0.4694,0.999-0.6772,4.0388-2.4302c0.0309-0.0172,0.0599-0.0336,0.0903-0.0519
		c-0.0429,0.0092-0.0858,0.0184-0.126,0.0279c-3.5384,0.7853-3.3097,0.2504-4.7875,0.9746
		c0.0803-0.2142,0.2421-0.4083,0.4875-0.5832c-0.6776-0.0539-1.4052,0.1947-2.1826,0.7318l0.1735-0.5995
		c-0.9338,0.2914-1.7836,0.612-2.2895,1.0502l-0.2153-0.5815c-0.6584,0.3432-1.281,0.7383-1.8745,1.2286l-0.1673-0.3911
		c-0.4359,0.1633-0.9011,0.5742-1.3744,1.049l-0.2809-0.2197c-0.6028,0.3202-1.1364,0.8605-1.6674,1.424
		c-0.0169-0.0822-0.118-0.1566-0.1196-0.2803c-0.587,0.4141-1.0366,0.8353-1.3887,1.2639l-0.2609-0.1691
		c-0.3743,0.4941-1.7249,1.4554-2.9046,2.2024c-0.0107-0.079-0.0171-0.1597-0.0472-0.2306
		c1.6573-1.4172,3.9131-3.1265,4.9517-3.5172l-0.2424-0.3832c0.85-0.3536,1.7144-0.8396,2.5971-1.506
		c-0.2222-0.0309-0.3303-0.1866-0.4757-0.2297c1.1377-0.5494,2.2307-1.116,2.9516-1.8271l-0.3279-0.426
		c0.9649-0.4996,1.8085-1.0076,2.2078-1.5378l-0.6608-0.3231c1.0203-0.6563,1.8777-1.3723,2.6505-2.1523l-0.9886-0.4365
		c0.9052-0.55,1.6812-1.5869,2.4274-2.7405l-1.1129,0.0708c1.1495-0.8842,1.767-1.7773,1.8329-2.6862
		c-0.3747,0.2814-0.7628,0.4441-1.1646,0.4953c1.652-1.7643,0.6407-1.5988,2.8945-6.0608c0.0236-0.0446,0.0453-0.0867,0.0671-0.1323
		c-0.0471,0.0426-0.0943,0.0853-0.1378,0.1263c-3.8625,3.5485-4.0909,2.6845-5.3129,4.686
		c-0.1062-0.3379-0.0858-0.7075,0.0633-1.1115c-0.9414,0.4118-1.6496,1.2556-2.1384,2.5131l-0.3646-0.9093
		c-0.9362,1.0468-1.7335,2.0721-1.964,3.0065l-0.8564-0.6088c-0.5241,0.9186-0.9501,1.8798-1.244,2.9451l-0.6053-0.3934
		c-0.41,0.5244-0.6143,1.3941-0.7658,2.3535l-0.585-0.0879c-0.4741,0.8488-0.6399,1.937-0.7797,3.0536
		c-0.1033-0.0956-0.3093-0.1213-0.4337-0.2822c-0.3605,0.9608-0.5339,1.8328-0.5723,2.6453l-0.509-0.0358
		c-0.0029,0.9436-0.8779,3.2829-1.7111,5.1315c-0.077-0.0551-0.1586-0.0979-0.2513-0.126c0.6454-2.5583,1.7241-5.8444,2.5511-6.9052
		l-0.5832-0.2762c0.6409-0.8954,1.1884-1.9448,1.6064-3.2032c-0.2696,0.0986-0.5172-0.0079-0.7125,0.0316
		c0.795-1.2821,1.5267-2.5563,1.7302-3.7675l-0.7125-0.2722c0.6464-1.1243,1.1526-2.1855,1.1526-3.006l-0.993,0.0394
		c0.5777-1.3295,0.927-2.6273,1.1306-3.9449l-1.4468,0.1105c0.5391-1.144,0.5336-2.7457,0.3988-4.4578l-1.1635,0.7416
		c0.5309-1.6569,0.4703-3.006-0.209-4.0435c-0.1788,0.5325-0.4704,0.9428-0.8693,1.2387c0.3549-2.9232-0.6189-2.1382-1.8347-8.383
		c-0.011-0.0631-0.022-0.1223-0.0358-0.1854c-0.0165,0.075-0.033,0.1499-0.0468,0.2209c-1.3066,6.2015-2.2721,5.3888-1.9585,8.316
		c-0.3961-0.3077-0.6794-0.7259-0.85-1.2585c-0.6932,1.0139-0.7729,2.363-0.2696,4.0357l-1.1525-0.7811
		c-0.1624,1.7082-0.1898,3.3098,0.3301,4.4736l-1.4442-0.1578c0.1843,1.3215,0.5117,2.6313,1.07,3.9765l-0.9902-0.071
		c-0.0165,0.8206,0.4786,1.8975,1.1058,3.0416l-0.7151,0.2524c0.1815,1.215,0.8995,2.509,1.6697,3.8187
		c-0.1926-0.0434-0.4401,0.0513-0.7097-0.0513c0.3989,1.2702,0.9297,2.3314,1.5597,3.2466l-0.5887,0.2643
		c0.8087,1.0799,1.8343,4.3869,2.4418,6.9637c-0.0261,0.0092-0.0526,0.0145-0.0776,0.0259c-0.8078-1.8179-1.6271-4.0355-1.63-4.9485
		l-0.509,0.0358c-0.0384-0.8125-0.2119-1.6845-0.5723-2.6453c-0.1243,0.1609-0.3303,0.1866-0.4337,0.2822
		c-0.1398-1.1166-0.3056-2.2047-0.7797-3.0536l-0.585,0.0879c-0.1516-0.9594-0.3558-1.829-0.7658-2.3535L18.65,26.7548
		c-0.2939-1.0652-0.7198-2.0264-1.244-2.9451l-0.8564,0.6089c-0.2305-0.9345-1.0278-1.9598-1.964-3.0065l-0.3646,0.9092
		c-0.4888-1.2575-1.197-2.1013-2.1384-2.5131c0.149,0.404,0.1695,0.7737,0.0633,1.1115c-1.222-2.0015-1.4504-1.1375-5.3129-4.686
		c-0.0435-0.0411-0.0906-0.0837-0.1378-0.1263c0.0219,0.0456,0.0435,0.0877,0.0671,0.1323c2.2538,4.462,1.2425,4.2965,2.8945,6.0608
		c-0.4017-0.0511-0.7899-0.2139-1.1646-0.4953c0.0659,0.9089,0.6835,1.8019,1.8329,2.6862l-1.1129-0.0709
		c0.7462,1.1536,1.5222,2.1905,2.4274,2.7405l-0.9886,0.4365c0.7728,0.78,1.6302,1.496,2.6505,2.1523l-0.6608,0.3231
		c0.3994,0.5302,1.2429,1.0383,2.2078,1.5379l-0.3279,0.4259c0.7209,0.7111,1.8139,1.2776,2.9516,1.8271
		c-0.1454,0.0431-0.2535,0.1988-0.4757,0.2297c0.8827,0.6664,1.7471,1.1523,2.5971,1.506l-0.2424,0.3831
		c1.0027,0.3772,3.135,1.9816,4.7729,3.3675c-0.0401,0.0762-0.062,0.1587-0.0784,0.246c-1.1282-0.7261-2.3519-1.6096-2.7051-2.0758
		l-0.261,0.1691c-0.3521-0.4286-0.8016-0.8497-1.3887-1.2639c-0.0016,0.1237-0.1027,0.1982-0.1196,0.2803
		c-0.5311-0.5635-1.0646-1.1038-1.6674-1.424l-0.2809,0.2196c-0.4733-0.4749-0.9385-0.8856-1.3744-1.049l-0.1673,0.3911
		c-0.5936-0.4903-1.2161-0.8854-1.8745-1.2286l-0.2154,0.5815c-0.5059-0.4382-1.3557-0.7588-2.2894-1.0502l0.1735,0.5995
		c-0.7775-0.537-1.5051-0.7856-2.1827-0.7318c0.2455,0.1749,0.4073,0.369,0.4875,0.5832c-1.4778-0.7242-1.2491-0.1893-4.7875-0.9746
		C5.3528,32.613,5.3099,32.6038,5.2669,32.5945z"/></svg>