<svg width="200" height="100" viewBox="0 0 200 100" fill="none" xmlns="http://www.w3.org/2000/svg">
<path d="M50 79.1667C50 83.75 57.5 87.5 66.6667 87.5H133.333C142.5 87.5 150 83.75 150 79.1667V29.1667H50V79.1667ZM66.6667 37.5H133.333V79.1667H66.6667V37.5ZM129.167 16.6667L120.833 12.5H79.1667L70.8333 16.6667H41.6667V25H158.333V16.6667H129.167Z" fill="white"/>
<path d="M113.282 60.5297C113.282 60.5297 109.51 60.2764 105.775 61.8544C106.476 61.0361 107.161 60.1255 107.781 59.1171C110.868 54.0917 111.145 48.6498 111.145 48.6498C111.145 48.6498 106.417 51.3569 103.329 56.3823C102.875 57.1206 102.489 57.8671 102.148 58.6049C102.357 57.371 102.493 56.0468 102.493 54.6601C102.493 48.2207 99.6406 43 99.6406 43C99.6406 43 96.7891 48.2207 96.7891 54.6602C96.7891 56.0469 96.9259 57.3711 97.1338 58.6046C96.7928 57.8667 96.4061 57.1206 95.9531 56.3823C92.8654 51.357 88.1367 48.6499 88.1367 48.6499C88.1367 48.6499 88.4142 54.0918 91.5011 59.1172C92.1211 60.1255 92.8066 61.0361 93.5069 61.8545C89.7714 60.2764 86 60.5297 86 60.5297C86 60.5297 88.2803 63.3706 92.0275 64.9658C93.4572 65.5743 94.8927 65.912 96.123 66.0991C95.5419 66.1421 94.9227 66.2271 94.2921 66.3819C91.5644 67.0488 89.6699 68.7173 89.6699 68.7173C89.6699 68.7173 92.1972 69.3037 94.9256 68.6362C96.6944 68.2031 98.1026 67.3549 98.8808 66.8086L98.2294 72.02C98.1991 72.2676 98.2676 72.5165 98.4189 72.7045C98.5703 72.8921 98.7879 73 99.0176 73H100.266C100.495 73 100.713 72.8921 100.864 72.7045C101.016 72.5165 101.084 72.2676 101.054 72.02L100.402 66.809C101.181 67.3554 102.589 68.2031 104.356 68.6362C107.085 69.3036 109.612 68.7173 109.612 68.7173C109.612 68.7173 107.718 67.0488 104.99 66.3819C104.359 66.2271 103.74 66.1421 103.159 66.0991C104.39 65.912 105.825 65.5743 107.255 64.9658C111.002 63.3706 113.282 60.5297 113.282 60.5297Z" fill="black"/>
</svg>
